<?xml version="1.0" encoding="UTF-8"?>
<svg id="Capa_1" data-name="Capa 1" xmlns="http://www.w3.org/2000/svg" viewBox="0 0 345.5 365.29">
  <defs>
    <style>
      .cls-1 {
        fill: #087299;
      }

      .cls-1, .cls-2 {
        stroke: #fff;
        stroke-miterlimit: 10;
        stroke-width: 6px;
      }

      .cls-2 {
        fill: #b51c13;
      }
    </style>
  </defs>
  <path class="cls-1" d="m117.96,109.82c-.25-29.58-.51-59.16-.76-88.74,3.99.56,9.49,1.46,15.97,2.9,7.39,1.65,16.35,3.64,27.13,8.1,14.47,5.98,24.05,13.02,26.06,14.52,6.23,4.64,11.98,8.93,17.5,16.74,2.19,3.1,6.62,9.97,9.32,19.8.81,2.93,2.21,8.86,2.29,18.11.16,17.59-4.61,31.32-7.64,39.82-5.4,15.13-11.97,25.95-18.34,36.46-4.7,7.74-4.64,6.74-14.22,21.86-7.81,12.32-8.49,14.01-16.2,26.14-5.19,8.17-3.85,5.79-15.13,23.16-5.27,8.11-10.95,15.96-15.97,24.23-5.46,8.98-8.52,14.87-10.32,14.29-1.4-.45-1.22-4.55-1.07-8.48.26-7.05.52-17.17.46-30.11H3v-120.76h106.32l7.72-.31c.2-5.3.41-10.6.61-15.9"/>
  <circle class="cls-2" cx="241.86" cy="33.96" r="30.96"/>
  <circle class="cls-1" cx="294.96" cy="77.49" r="22.14"/>
  <path class="cls-2" d="m297.56,127.03c.11-.02.2,0,.23,0,.76.14,12.74.17,44.71,0v124.05h-106.17v111.21h-119.92v-49.07c3.08-1.63,7.68-4.12,13.15-7.34,5.07-2.98,19.51-11.65,47.56-33.41,10.91-8.47,19.12-14.84,30.14-24.44,7.58-6.61,19.33-16.89,33.13-31.42,9.73-10.24,25.64-27.15,39.2-48.87,11.97-19.18,16.61-33.32,16.75-36.27.02-.43.11-4.2,1.22-4.43Z"/>
</svg>